<?xml version="1.0" standalone="no"?>
<!DOCTYPE svg PUBLIC "-//W3C//DTD SVG 20010904//EN"
 "http://www.w3.org/TR/2001/REC-SVG-20010904/DTD/svg10.dtd">
<svg version="1.0" xmlns="http://www.w3.org/2000/svg"
 width="444.000000pt" height="255.000000pt" viewBox="0 0 444.000000 255.000000"
 preserveAspectRatio="xMidYMid meet">

<g transform="translate(0.000000,255.000000) scale(0.100000,-0.100000)"
fill="#F535AA" stroke="none">
<path d="M1281 1913 c-5 -10 -53 -192 -106 -405 l-98 -388 -68 0 c-127 0 -219
-30 -219 -72 0 -20 3 -21 81 -14 45 4 103 11 131 17 27 6 51 9 54 6 2 -2 -16
-82 -41 -178 -47 -182 -53 -223 -33 -217 7 3 37 97 68 211 46 172 58 207 75
211 80 22 407 -7 781 -69 28 -5 44 -3 49 5 4 6 4 14 1 17 -17 18 -529 83 -652
83 l-79 1 65 34 c155 83 339 251 508 463 78 98 99 142 69 142 -8 0 -19 -11
-25 -24 -21 -46 -172 -223 -284 -333 -66 -64 -152 -136 -203 -169 -85 -55
-222 -121 -232 -111 -2 3 10 59 27 124 17 65 51 202 75 304 24 103 55 215 68
250 17 42 23 75 20 97 -6 36 -17 41 -32 15z m-306 -834 c-22 -4 -53 -8 -70 -7
-29 1 -29 1 5 8 19 4 51 7 70 8 l35 0 -40 -9z"/>
<path d="M3256 1838 c-8 -13 -45 -97 -81 -188 -211 -522 -355 -804 -473 -927
-61 -64 -93 -75 -127 -43 -51 48 -58 216 -24 653 22 294 22 464 0 491 -22 26
-57 19 -85 -17 -131 -172 -357 -963 -321 -1127 10 -44 33 -35 61 21 26 52 180
616 171 625 -21 21 -39 -23 -96 -243 -77 -294 -101 -377 -108 -370 -2 3 2 55
11 116 30 199 192 744 265 888 35 70 65 101 78 81 12 -20 7 -231 -11 -428 -33
-360 -31 -614 5 -693 6 -14 26 -33 43 -42 46 -25 96 -6 160 59 103 105 259
389 392 713 32 78 59 141 60 140 1 -1 -20 -94 -46 -207 -26 -113 -57 -261 -69
-330 -27 -152 -40 -350 -22 -350 16 0 19 11 31 140 14 150 76 453 152 749 34
130 63 253 66 274 5 42 -10 49 -32 15z"/>
<path d="M1767 1300 c-55 -40 -97 -93 -97 -123 0 -39 82 -29 166 19 l42 24 6
-26 c15 -60 127 -43 194 29 38 41 8 42 -57 2 -78 -48 -97 -45 -94 19 3 43 1
47 -17 41 -17 -5 -20 -2 -20 24 0 28 -3 31 -33 31 -23 0 -51 -12 -90 -40z m86
-21 c6 -24 1 -29 -53 -58 -74 -40 -102 -39 -71 1 19 23 111 92 116 85 1 -1 5
-14 8 -28z"/>
<path d="M3340 1312 c-87 -55 -138 -139 -94 -156 34 -13 41 -11 187 62 4 2 7
-6 7 -17 0 -11 11 -28 24 -36 20 -13 32 -14 64 -6 47 13 122 65 122 86 0 23
-15 18 -74 -21 -72 -47 -92 -43 -89 19 1 46 -10 60 -33 37 -6 -6 -9 3 -9 23 0
28 -3 32 -30 35 -20 2 -46 -7 -75 -26z m72 -32 c4 -27 0 -32 -53 -60 -88 -47
-115 -39 -56 17 24 24 94 73 103 73 1 0 4 -13 6 -30z"/>
</g>
</svg>
