<svg width="382" height="175" viewBox="0 0 382 175" fill="none" xmlns="http://www.w3.org/2000/svg">
<path d="M65.7999 2.93335C65.1333 4.26669 58.7333 28.5334 51.6666 56.9334L38.5999 108.667H29.5333C12.5999 108.667 0.333252 112.667 0.333252 118.267C0.333252 120.933 0.733252 121.067 11.1333 120.133C17.1333 119.6 24.8666 118.667 28.5999 117.867C32.1999 117.067 35.3999 116.667 35.7999 117.067C36.0666 117.333 33.6666 128 30.3333 140.8C24.0666 165.067 23.2666 170.533 25.9333 169.733C26.8666 169.333 30.8666 156.8 34.9999 141.6C41.1333 118.667 42.7333 114 44.9999 113.467C55.6666 110.533 99.2666 114.4 149.133 122.667C152.867 123.333 155 123.067 155.667 122C156.2 121.2 156.2 120.133 155.8 119.733C153.533 117.333 85.2666 108.667 68.8666 108.667L58.3333 108.533L66.9999 104C87.6666 92.9334 112.2 70.5334 134.733 42.2667C145.133 29.2 147.933 23.3334 143.933 23.3334C142.867 23.3334 141.4 24.8 140.6 26.5334C137.8 32.6667 117.667 56.2667 102.733 70.9334C93.9333 79.4667 82.4666 89.0667 75.6666 93.4667C64.3333 100.8 46.0666 109.6 44.7333 108.267C44.4666 107.867 46.0666 100.4 48.3333 91.7333C50.5999 83.0667 55.1333 64.8 58.3333 51.2C61.5333 37.4667 65.6666 22.5334 67.3999 17.8667C69.6666 12.2667 70.4666 7.86669 70.0666 4.93335C69.2666 0.133355 67.7999 -0.533312 65.7999 2.93335ZM24.9999 114.133C22.0666 114.667 17.9333 115.2 15.6666 115.067C11.7999 114.933 11.7999 114.933 16.3333 114C18.8666 113.467 23.1333 113.067 25.6666 112.933H30.3333L24.9999 114.133Z" fill="#F535AA"/>
<path d="M329.133 12.9333C328.066 14.6667 323.133 25.8667 318.333 38C290.2 107.6 271 145.2 255.266 161.6C247.133 170.133 242.866 171.6 238.333 167.333C231.533 160.933 230.6 138.533 235.133 80.2667C238.066 41.0667 238.066 18.4 235.133 14.8C232.2 11.3333 227.533 12.2667 223.8 17.0667C206.333 40 176.2 145.467 181 167.333C182.333 173.2 185.4 172 189.133 164.533C192.6 157.6 213.133 82.4 211.933 81.2C209.133 78.4 206.733 84.2667 199.133 113.6C188.866 152.8 185.666 163.867 184.733 162.933C184.466 162.533 185 155.6 186.2 147.467C190.2 120.933 211.8 48.2667 221.533 29.0667C226.2 19.7333 230.2 15.6 231.933 18.2667C233.533 20.9333 232.866 49.0667 230.466 75.3333C226.066 123.333 226.333 157.2 231.133 167.733C231.933 169.6 234.6 172.133 236.866 173.333C243 176.667 249.666 174.133 258.2 165.467C271.933 151.467 292.733 113.6 310.466 70.4C314.733 60 318.333 51.6 318.466 51.7333C318.6 51.8667 315.8 64.2667 312.333 79.3333C308.866 94.4 304.733 114.133 303.133 123.333C299.533 143.6 297.8 170 300.2 170C302.333 170 302.733 168.533 304.333 151.333C306.2 131.333 314.466 90.9333 324.6 51.4667C329.133 34.1333 333 17.7333 333.4 14.9333C334.066 9.33333 332.066 8.4 329.133 12.9333Z" fill="#F535AA"/>
<path d="M130.6 84.6667C123.267 90 117.667 97.0667 117.667 101.067C117.667 106.267 128.6 104.933 139.8 98.5334L145.4 95.3334L146.2 98.8C148.2 106.8 163.133 104.533 172.067 94.9334C177.133 89.4667 173.133 89.3334 164.467 94.6667C154.067 101.067 151.533 100.667 151.933 92.1334C152.333 86.4 152.067 85.8667 149.667 86.6667C147.4 87.3334 147 86.9334 147 83.4667C147 79.7334 146.6 79.3334 142.6 79.3334C139.533 79.3334 135.8 80.9334 130.6 84.6667ZM142.067 87.4667C142.867 90.6667 142.2 91.3334 135 95.2C125.133 100.533 121.4 100.4 125.533 95.0667C128.067 92 140.333 82.8 141 83.7334C141.133 83.8667 141.667 85.6 142.067 87.4667Z" fill="#F535AA"/>
<path d="M340.333 83.0667C328.733 90.4 321.933 101.6 327.8 103.867C332.333 105.6 333.266 105.333 352.733 95.6C353.266 95.3334 353.666 96.4 353.666 97.8667C353.666 99.3334 355.133 101.6 356.866 102.667C359.533 104.4 361.133 104.533 365.4 103.467C371.666 101.733 381.666 94.8 381.666 92C381.666 88.9334 379.666 89.6 371.8 94.8C362.2 101.067 359.533 100.533 359.933 92.2667C360.066 86.1334 358.6 84.2667 355.533 87.3334C354.733 88.1334 354.333 86.9334 354.333 84.2667C354.333 80.5334 353.933 80 350.333 79.6C347.666 79.3334 344.2 80.5334 340.333 83.0667ZM349.933 87.3334C350.466 90.9334 349.933 91.6 342.866 95.3334C331.133 101.6 327.533 100.533 335.4 93.0667C338.6 89.8667 347.933 83.3334 349.133 83.3334C349.266 83.3334 349.666 85.0667 349.933 87.3334Z" fill="#F535AA"/>
</svg>
